<?xml version="1.0" standalone="no"?>
<!DOCTYPE svg PUBLIC "-//W3C//DTD SVG 20010904//EN"
 "http://www.w3.org/TR/2001/REC-SVG-20010904/DTD/svg10.dtd">
<svg version="1.0" xmlns="http://www.w3.org/2000/svg"
 width="794.000000pt" height="794.000000pt" viewBox="0 0 794.000000 794.000000"
 preserveAspectRatio="xMidYMid meet">

<g transform="translate(0.000000,794.000000) scale(0.100000,-0.100000)"
fill="#e74d4d" stroke="none">
<path d="M2430 6920 c-282 -61 -561 -236 -723 -455 -283 -381 -297 -870 -36
-1252 l51 -75 -16 -38 c-43 -108 -40 -251 9 -358 30 -65 105 -139 172 -171 46
-21 52 -28 62 -66 9 -36 7 -52 -9 -99 -31 -91 -69 -273 -85 -412 -101 -866
291 -1708 1024 -2195 185 -123 446 -243 636 -292 74 -19 85 -25 98 -52 67
-140 210 -175 344 -83 l42 28 11 -58 c28 -134 117 -258 225 -312 41 -21 65
-25 132 -25 79 0 84 1 114 31 l31 32 49 -26 c131 -67 268 -22 315 105 10 26
18 49 19 51 1 1 18 -5 38 -13 45 -19 137 -19 180 -2 48 20 95 64 120 111 20
38 21 56 22 220 0 167 1 179 20 193 11 8 67 45 125 82 521 335 886 868 1009
1474 34 167 45 280 45 467 -1 318 -51 578 -164 860 -28 69 -46 137 -65 250
-123 728 -416 1248 -813 1444 -242 120 -626 126 -1006 15 -270 -79 -587 -230
-829 -395 -43 -30 -82 -54 -86 -54 -5 0 -11 26 -14 57 -8 79 -56 171 -118 227
-28 25 -55 46 -59 46 -4 0 -10 57 -13 128 -10 205 -59 340 -169 457 -71 77
-181 137 -293 160 -98 21 -289 18 -395 -5z m394 -125 c114 -24 182 -75 250
-189 19 -32 46 -93 60 -135 22 -68 31 -106 50 -218 l6 -33 -74 0 -74 0 -17 52
c-63 193 -193 318 -332 318 -59 0 -66 -9 -26 -35 87 -58 187 -182 233 -292
l28 -66 -75 -39 c-42 -21 -77 -37 -78 -36 -1 2 -17 31 -35 66 -65 124 -176
210 -283 220 -61 6 -59 -2 10 -57 72 -57 129 -131 175 -229 l39 -83 -46 -51
c-26 -29 -58 -74 -72 -102 l-25 -49 -44 83 c-55 103 -109 168 -178 214 -65 43
-166 74 -197 60 -20 -9 -17 -14 46 -64 133 -108 221 -241 250 -377 18 -83 18
-120 4 -179 -41 -163 -258 -158 -343 9 -27 53 -30 70 -35 185 l-6 127 -27 -30
c-118 -127 -54 -430 109 -517 62 -33 120 -41 196 -28 102 19 189 84 224 168
13 31 15 33 31 18 61 -55 238 -69 344 -27 88 34 212 160 192 193 -3 4 -33 -6
-67 -24 -100 -50 -164 -68 -241 -68 -91 0 -130 22 -146 79 -34 129 75 293 254
381 95 47 186 61 261 40 58 -16 128 -78 150 -132 50 -125 16 -323 -86 -495
-50 -84 -198 -227 -324 -313 l-110 -75 39 -3 c21 -2 69 6 106 17 37 12 70 21
73 21 11 0 27 -66 27 -110 0 -178 -235 -326 -585 -369 -336 -41 -581 39 -627
203 -14 52 -14 153 0 188 l11 27 68 -32 c67 -31 193 -51 193 -31 0 5 -33 27
-73 49 -46 26 -103 71 -158 125 -71 71 -93 100 -132 181 -169 346 -148 761 53
1029 51 69 169 189 236 241 120 92 305 174 446 198 86 14 276 12 352 -4z
m2321 -720 c135 -36 228 -99 299 -203 117 -172 138 -366 50 -459 l-32 -34 -85
64 c-105 79 -211 134 -345 181 -148 51 -254 69 -414 70 l-138 1 0 65 c0 156
117 271 317 314 92 20 273 20 348 1z m-775 -831 c61 -33 111 -87 160 -172 19
-34 39 -62 44 -62 5 0 7 48 4 110 l-6 110 63 0 c82 0 192 -22 280 -55 67 -25
195 -100 195 -114 0 -4 -18 -25 -41 -46 -42 -41 -112 -136 -105 -143 3 -2 40
9 83 24 66 24 94 29 178 29 84 0 107 -4 140 -22 81 -43 116 -105 123 -215 3
-43 7 -78 10 -78 2 0 10 7 16 15 10 14 16 9 43 -29 40 -57 105 -94 186 -108
l64 -11 7 -61 c11 -112 -34 -187 -187 -309 -66 -53 -91 -105 -92 -188 0 -60 3
-71 31 -106 31 -38 31 -40 14 -63 -42 -60 -55 -194 -26 -265 9 -21 16 -48 16
-62 0 -50 -34 -161 -75 -249 -35 -72 -57 -103 -108 -150 -117 -110 -336 -203
-577 -245 -98 -17 -145 -31 -215 -65 -107 -51 -171 -70 -283 -83 -248 -31
-497 79 -651 288 -46 62 -131 221 -131 246 0 6 -14 24 -31 41 -107 101 -242
315 -291 464 -30 88 -32 105 -33 235 0 123 3 148 24 206 37 104 87 169 153
201 68 33 123 95 139 157 11 43 15 48 62 66 38 15 59 32 82 63 29 42 30 47 30
150 -1 59 -5 161 -9 228 -11 150 -5 184 41 235 55 61 63 63 126 28 31 -16 78
-32 104 -36 48 -5 49 -6 45 -37 l-4 -31 33 31 c97 89 160 116 255 110 44 -2
77 -12 114 -32z m-1085 -224 c18 -11 40 -31 49 -45 16 -24 15 -28 -22 -100
l-38 -76 -29 31 c-27 28 -54 38 -67 25 -3 -3 7 -46 23 -95 21 -67 26 -95 20
-113 -5 -14 -15 -60 -21 -104 -10 -65 -9 -90 2 -134 l14 -54 -33 -43 c-21 -28
-35 -39 -38 -30 -2 7 -24 109 -49 227 l-45 214 23 31 c52 69 86 169 86 251 0
35 0 35 46 35 29 0 59 -8 79 -20z m2763 -1115 c47 -20 79 -50 105 -100 29 -55
35 -197 13 -285 -60 -239 -224 -375 -478 -396 -77 -7 -81 -6 -76 12 3 10 17
57 31 104 14 47 28 107 32 133 6 41 12 50 39 61 40 17 98 82 131 146 30 59 81
89 150 90 55 0 72 12 49 34 -24 24 -58 36 -106 36 -37 0 -40 2 -35 23 3 12 9
45 12 72 11 83 12 85 56 85 22 0 56 -7 77 -15z m-2881 -1473 c87 -47 116 -165
73 -304 -34 -109 -90 -178 -196 -238 l-41 -24 -34 24 c-19 13 -69 48 -113 79
l-78 56 5 75 c6 101 37 177 98 244 87 96 204 132 286 88z m1657 -202 c110 -11
214 -37 309 -76 75 -31 210 -119 255 -166 31 -33 32 -35 14 -51 -10 -10 -70
-48 -133 -86 l-114 -68 -7 -74 c-4 -41 -5 -123 -2 -184 7 -131 -6 -178 -56
-212 -59 -41 -118 -26 -182 45 -61 68 -82 137 -82 282 -1 69 3 151 7 183 7 48
6 57 -7 57 -23 0 -62 -58 -85 -128 -17 -48 -22 -88 -22 -167 0 -118 10 -167
52 -244 33 -62 35 -80 14 -121 -32 -61 -108 -94 -165 -70 -44 18 -95 80 -119
143 -52 141 -50 415 5 605 12 43 -25 24 -61 -32 -108 -169 -127 -475 -39 -649
14 -27 23 -55 20 -62 -3 -8 -21 -17 -41 -21 -51 -9 -115 18 -164 71 -89 97
-115 194 -108 410 4 146 16 208 62 319 8 17 6 17 -23 2 -66 -34 -122 -145
-143 -284 -12 -82 -13 -84 -65 -131 -91 -83 -170 -88 -220 -13 -82 121 -40
411 81 558 80 98 236 129 357 72 l57 -26 73 36 c149 75 324 102 532 82z"/>
<path d="M4798 5942 c-86 -43 -159 -80 -162 -83 -4 -3 8 -36 24 -73 l31 -67
52 44 c71 61 167 127 184 127 7 0 38 -38 68 -85 30 -47 57 -85 60 -85 2 0 44
18 91 40 48 22 88 40 89 40 7 0 28 -65 50 -154 14 -55 27 -101 29 -103 6 -7
126 19 131 28 6 9 -72 196 -122 291 l-35 66 -95 -44 c-53 -25 -100 -43 -104
-42 -5 2 -32 41 -62 87 -29 47 -58 86 -63 87 -5 1 -80 -32 -166 -74z"/>
<path d="M4215 5101 c-185 -45 -335 -291 -335 -552 0 -95 25 -198 60 -242 24
-30 24 -40 2 -90 l-17 -38 -60 39 c-93 60 -144 130 -165 229 -6 26 -13 54 -15
61 -7 20 -72 -18 -131 -76 -126 -124 -139 -308 -27 -389 33 -24 38 -32 32 -53
-36 -129 32 -278 142 -309 l44 -12 0 -177 c0 -208 15 -292 75 -418 49 -102
123 -180 216 -225 61 -30 79 -34 170 -37 112 -5 198 14 296 64 119 60 257 200
341 345 l27 46 99 -5 c88 -4 104 -2 146 18 49 24 89 74 99 126 7 30 7 30 75
30 86 -1 133 27 176 105 28 50 30 61 30 159 0 81 -4 113 -18 138 -21 38 -26
39 -60 12 -70 -55 -195 -84 -297 -70 -34 5 -63 10 -65 12 -1 2 2 28 8 58 l11
56 55 17 c182 54 321 313 308 572 -6 141 -56 228 -161 283 -71 37 -179 38
-250 3 -98 -48 -210 -199 -231 -312 -11 -59 -15 -61 -81 -28 -34 17 -92 39
-130 48 -38 10 -68 23 -67 29 44 205 42 355 -8 453 -50 100 -180 157 -294 130z
m142 -90 c44 -20 86 -74 99 -125 6 -25 5 -27 -12 -18 -73 37 -167 13 -240 -62
-82 -84 -124 -195 -125 -329 -1 -67 -3 -74 -32 -104 -17 -18 -35 -33 -40 -33
-4 0 -18 21 -30 48 -18 40 -21 65 -21 162 0 99 4 126 27 194 34 97 64 149 118
203 79 81 169 103 256 64z m47 -171 c30 -11 53 -44 59 -87 7 -42 0 -46 -33
-21 -22 16 -37 19 -65 15 -78 -13 -142 -97 -166 -218 -10 -51 -16 -61 -47 -79
-19 -12 -37 -18 -40 -15 -3 3 0 45 6 93 27 206 166 358 286 312z m824 -125
c86 -36 124 -102 130 -227 10 -200 -87 -418 -211 -476 -79 -38 -85 -37 -93 3
-6 33 -3 40 34 78 81 85 127 222 120 362 -7 141 -67 220 -166 220 -38 0 -40 2
-25 14 56 42 145 53 211 26z m-129 -90 c42 -21 65 -77 69 -171 6 -126 -30
-244 -100 -328 l-32 -39 -17 39 c-16 38 -15 40 7 66 26 32 59 114 69 176 22
135 -63 225 -164 175 l-40 -20 14 26 c39 76 128 111 194 76z m-687 -20 c8 -18
8 -32 -2 -55 -23 -55 -90 -49 -90 9 0 63 68 98 92 46z m572 -181 c12 -30 6
-64 -14 -84 -24 -24 -43 -25 -65 -3 -18 17 -15 64 6 90 16 18 65 17 73 -3z
m-439 -39 c212 -55 374 -221 406 -415 9 -54 8 -77 -5 -128 -28 -110 -88 -175
-201 -218 -76 -29 -245 -27 -345 4 -171 54 -291 145 -352 269 -29 60 -33 76
-32 148 0 93 28 166 87 232 93 103 282 149 442 108z m-666 -757 c31 -66 98
-133 159 -160 64 -28 185 -36 245 -15 l45 15 12 -28 c18 -43 91 -114 146 -141
41 -20 64 -24 140 -24 83 0 94 2 133 28 l43 29 -26 -49 c-15 -27 -37 -62 -50
-78 l-23 -28 -94 13 c-282 38 -631 181 -753 309 -27 28 -28 31 -21 105 4 42
10 76 14 76 3 -1 17 -24 30 -52z"/>
<path d="M3146 2261 c-4 -6 -25 -46 -46 -88 -23 -47 -65 -107 -105 -150 -36
-39 -61 -74 -57 -77 16 -10 81 15 123 47 55 42 99 121 106 190 5 54 -7 101
-21 78z"/>
</g>
</svg>
